HIERARCHY
ROOT Haolin_V1:Solving:Hips
{
	OFFSET 0.000000 0.000000 0.000000
	CHANNELS 6 Xposition Yposition Zposition Xrotation Yrotation Zrotation
	JOINT Haolin_V1:Solving:Spine
	{
		OFFSET 0.000000 -12.731938 2.520517
		CHANNELS 6 Xposition Yposition Zposition Xrotation Yrotation Zrotation
		JOINT Haolin_V1:Solving:Spine1
		{
			OFFSET 0.000000 -8.486854 1.496462
			CHANNELS 6 Xposition Yposition Zposition Xrotation Yrotation Zrotation
			JOINT Haolin_V1:Solving:Spine2
			{
				OFFSET 0.000000 -8.584984 0.751091
				CHANNELS 6 Xposition Yposition Zposition Xrotation Yrotation Zrotation
				JOINT Haolin_V1:Solving:Spine3
				{
					OFFSET 0.000000 -8.617775 0.000000
					CHANNELS 6 Xposition Yposition Zposition Xrotation Yrotation Zrotation
					JOINT Haolin_V1:Solving:Neck
					{
						OFFSET 0.000000 -11.080002 -1.107998
						CHANNELS 6 Xposition Yposition Zposition Xrotation Yrotation Zrotation
						JOINT Haolin_V1:Solving:Neck1
						{
							OFFSET 0.000000 -8.314011 -0.727381
							CHANNELS 6 Xposition Yposition Zposition Xrotation Yrotation Zrotation
							JOINT Haolin_V1:Solving:Head
							{
								OFFSET 0.000000 -8.218975 -1.449226
								CHANNELS 6 Xposition Yposition Zposition Xrotation Yrotation Zrotation
								JOINT Haolin_V1:Solving:HeadEnd
								{
									OFFSET 0.000000 -9.728081 0.000002
									CHANNELS 6 Xposition Yposition Zposition Xrotation Yrotation Zrotation
									End Site
									{
										OFFSET 0.000000 -9.728081 0.000002
									}
								}
							}
						}
					}
					JOINT Haolin_V1:Solving:RightShoulder
					{
						OFFSET 0.000000 -7.914288 -5.288076
						CHANNELS 6 Xposition Yposition Zposition Xrotation Yrotation Zrotation
						JOINT Haolin_V1:Solving:RightArm
						{
							OFFSET -20.201836 -0.000008 0.000000
							CHANNELS 6 Xposition Yposition Zposition Xrotation Yrotation Zrotation
							JOINT Haolin_V1:Solving:RightForeArm
							{
								OFFSET -29.446457 -0.000008 0.000000
								CHANNELS 6 Xposition Yposition Zposition Xrotation Yrotation Zrotation
								JOINT Haolin_V1:Solving:RightHand
								{
									OFFSET -23.111885 -0.000008 0.000000
									CHANNELS 6 Xposition Yposition Zposition Xrotation Yrotation Zrotation
									JOINT Haolin_V1:Solving:RightHandThumb1
									{
										OFFSET -3.824379 2.925484 -2.843767
										CHANNELS 6 Xposition Yposition Zposition Xrotation Yrotation Zrotation
										End Site
										{
											OFFSET -5.557076 0.000000 -5.608460
										}
									}
									JOINT Haolin_V1:Solving:RightHandMiddle1
									{
										OFFSET -10.198334 -0.000004 0.065374
										CHANNELS 6 Xposition Yposition Zposition Xrotation Yrotation Zrotation
										End Site
										{
											OFFSET -7.895309 -0.000004 0.000000
										}
									}
								}
							}
						}
					}
					JOINT Haolin_V1:Solving:LeftShoulder
					{
						OFFSET 0.000000 -7.914288 -5.288076
						CHANNELS 6 Xposition Yposition Zposition Xrotation Yrotation Zrotation
						JOINT Haolin_V1:Solving:LeftArm
						{
							OFFSET 20.201836 -0.000008 0.000000
							CHANNELS 6 Xposition Yposition Zposition Xrotation Yrotation Zrotation
							JOINT Haolin_V1:Solving:LeftForeArm
							{
								OFFSET 29.446457 -0.000008 0.000000
								CHANNELS 6 Xposition Yposition Zposition Xrotation Yrotation Zrotation
								JOINT Haolin_V1:Solving:LeftHand
								{
									OFFSET 23.111885 -0.000008 0.000000
									CHANNELS 6 Xposition Yposition Zposition Xrotation Yrotation Zrotation
									JOINT Haolin_V1:Solving:LeftHandThumb1
									{
										OFFSET 3.824379 2.925484 -2.843767
										CHANNELS 6 Xposition Yposition Zposition Xrotation Yrotation Zrotation
										End Site
										{
											OFFSET 5.557076 0.000000 -5.608460
										}
									}
									JOINT Haolin_V1:Solving:LeftHandMiddle1
									{
										OFFSET 10.198334 -0.000004 0.065374
										CHANNELS 6 Xposition Yposition Zposition Xrotation Yrotation Zrotation
										End Site
										{
											OFFSET 7.895309 -0.000004 0.000000
										}
									}
								}
							}
						}
					}
				}
			}
		}
	}
	JOINT Haolin_V1:Solving:RightUpLeg
	{
		OFFSET -10.695510 0.000000 0.000000
		CHANNELS 6 Xposition Yposition Zposition Xrotation Yrotation Zrotation
		JOINT Haolin_V1:Solving:RightLeg
		{
			OFFSET 0.000000 46.236332 -0.000006
			CHANNELS 6 Xposition Yposition Zposition Xrotation Yrotation Zrotation
			JOINT Haolin_V1:Solving:RightFoot
			{
				OFFSET 0.000000 41.248135 -0.000006
				CHANNELS 6 Xposition Yposition Zposition Xrotation Yrotation Zrotation
				JOINT Haolin_V1:Solving:RightForeFoot
				{
					OFFSET 0.000000 3.207336 -0.000000
					CHANNELS 6 Xposition Yposition Zposition Xrotation Yrotation Zrotation
					JOINT Haolin_V1:Solving:RightToeBase
					{
						OFFSET 0.000000 0.000000 -12.560947
						CHANNELS 6 Xposition Yposition Zposition Xrotation Yrotation Zrotation
						JOINT Haolin_V1:Solving:RightToeBaseEnd
						{
							OFFSET 0.000000 0.000000 -3.517768
							CHANNELS 6 Xposition Yposition Zposition Xrotation Yrotation Zrotation
							End Site
							{
								OFFSET 0.000000 -3.517769 0.000004
							}
						}
					}
				}
			}
		}
	}
	JOINT Haolin_V1:Solving:LeftUpLeg
	{
		OFFSET 10.695510 0.000000 0.000000
		CHANNELS 6 Xposition Yposition Zposition Xrotation Yrotation Zrotation
		JOINT Haolin_V1:Solving:LeftLeg
		{
			OFFSET 0.000000 46.236332 -0.000006
			CHANNELS 6 Xposition Yposition Zposition Xrotation Yrotation Zrotation
			JOINT Haolin_V1:Solving:LeftFoot
			{
				OFFSET 0.000000 41.248135 -0.000006
				CHANNELS 6 Xposition Yposition Zposition Xrotation Yrotation Zrotation
				JOINT Haolin_V1:Solving:LeftForeFoot
				{
					OFFSET 0.000000 3.207336 -0.000000
					CHANNELS 6 Xposition Yposition Zposition Xrotation Yrotation Zrotation
					JOINT Haolin_V1:Solving:LeftToeBase
					{
						OFFSET 0.000000 0.000000 -12.560947
						CHANNELS 6 Xposition Yposition Zposition Xrotation Yrotation Zrotation
						JOINT Haolin_V1:Solving:LeftToeBaseEnd
						{
							OFFSET 0.000000 0.000000 -3.901837
							CHANNELS 6 Xposition Yposition Zposition Xrotation Yrotation Zrotation
							End Site
							{
								OFFSET 0.000000 -3.901840 0.000004
							}
						}
					}
				}
			}
		}
	}
}
MOTION
Frames: 4
Frame Time: 0.041667
-11.732157 -89.167740 -95.207550 85.703889 -21.984496 -0.777320 0.000001 -12.731928 2.520539 13.210162 0.386336 -0.513700 -0.000002 -8.486853 1.496487 0.278865 -0.005266 0.249672 0.000003 -8.584967 0.751084 -6.199139 2.938838 1.434540 0.000003 -8.617779 0.000010 -3.577222 0.519679 1.269859 -0.000004 -11.080023 -1.108004 6.469128 6.862418 -1.955140 0.000005 -8.313997 -0.727374 3.427159 8.955835 -0.755025 -0.000001 -8.218960 -1.449262 12.116805 0.714765 -1.803144 0.000000 -9.728088 0.000034 0.000001 -0.000000 0.000000 0.000004 -7.914307 -5.288077 -0.000011 21.502771 19.215902 -20.201826 -0.000018 0.000002 -42.551279 -25.674717 -96.069425 -29.446457 -0.000012 -0.000012 -147.508030 -75.590632 -148.332475 -23.111877 -0.000005 0.000000 2.131556 32.774950 -3.933227 -3.824360 2.925474 -2.843760 0.000002 -0.000012 -0.000007 -10.198318 -0.000007 0.065389 0.000003 -0.000001 0.000000 0.000001 -7.914303 -5.288076 -0.000007 -8.925423 -10.114876 20.201828 -0.000009 -0.000016 -10.187242 40.396010 91.293709 29.446491 -0.000006 -0.000006 26.367354 12.541606 -6.143583 23.111877 -0.000019 0.000010 0.677307 3.773321 -10.184090 3.824388 2.925472 -2.843763 0.000004 0.000003 0.000002 10.198340 -0.000010 0.065381 -0.000001 0.000002 -0.000001 -10.695509 0.000006 0.000013 -1.583072 5.631336 4.127969 0.000008 46.236328 -0.000009 6.047105 0.000002 0.000001 0.000003 41.248146 -0.000009 0.834486 -2.356667 -4.939349 -0.000004 3.207344 -0.000013 -0.000000 -0.000001 -0.000000 -0.000009 0.000013 -12.560951 8.575823 -0.000001 -0.000000 0.000002 0.000015 -3.517792 -0.000000 -0.000003 0.000000 10.695507 0.000001 -0.000006 5.721868 -16.770949 2.039801 -0.000001 46.236328 0.000007 7.452210 -0.000003 0.000002 -0.000003 41.248138 -0.000012 -7.784191 -12.709612 -6.253484 -0.000019 3.207337 -0.000003 -0.000000 -0.000007 0.000001 -0.000012 0.000008 -12.560950 7.046900 -0.000008 0.000001 -0.000038 -0.000000 -3.901837 -0.000001 0.000002 0.000002 
-11.761587 -89.175430 -95.206696 85.713034 -22.063756 -0.774828 -0.000002 -12.731918 2.520534 13.215914 0.393367 -0.435748 -0.000005 -8.486847 1.496467 0.284877 -0.006874 0.263815 -0.000000 -8.584988 0.751087 -6.184538 2.931884 1.448999 -0.000002 -8.617784 0.000005 -3.580421 0.523953 1.267188 -0.000007 -11.080006 -1.108005 6.381742 6.892910 -1.958759 -0.000001 -8.314026 -0.727386 3.434253 9.030471 -0.801895 -0.000001 -8.218997 -1.449252 12.163208 0.724602 -1.868812 -0.000001 -9.728096 0.000001 0.000003 -0.000000 0.000000 0.000001 -7.914284 -5.288074 -0.000008 21.423539 19.161013 -20.201822 -0.000008 -0.000005 -41.800727 -26.499215 -95.741507 -29.446472 -0.000001 -0.000008 -149.648543 -76.248161 -150.370303 -23.111877 -0.000006 -0.000001 1.762949 32.187765 -3.306870 -3.824382 2.925455 -2.843763 0.000001 -0.000009 -0.000005 -10.198324 -0.000034 0.065366 0.000002 -0.000005 0.000002 -0.000003 -7.914276 -5.288082 -0.000005 -8.930005 -10.095961 20.201826 0.000005 -0.000001 -10.298569 40.394541 91.289515 29.446465 -0.000000 0.000008 27.292866 12.540099 -6.392213 23.111900 -0.000032 0.000013 0.589918 3.554538 -9.429303 3.824402 2.925479 -2.843762 0.000005 0.000003 0.000000 10.198318 -0.000006 0.065380 0.000002 0.000001 -0.000000 -10.695512 0.000013 0.000024 -1.560871 5.620446 4.110125 0.000002 46.236343 0.000009 5.992752 -0.000001 0.000001 -0.000002 41.248161 -0.000025 0.852132 -2.269785 -4.961393 0.000004 3.207336 -0.000004 0.000000 0.000001 -0.000000 0.000003 0.000009 -12.560950 8.590517 0.000003 -0.000000 -0.000002 0.000008 -3.517768 0.000001 -0.000005 0.000000 10.695508 0.000025 0.000011 5.709031 -16.771702 2.020640 0.000020 46.236328 -0.000003 7.411763 -0.000004 0.000001 0.000009 41.248142 -0.000004 -7.772782 -12.640016 -6.249002 0.000004 3.207329 -0.000001 0.000001 -0.000005 0.000001 -0.000002 -0.000007 -12.560961 7.179608 0.000002 -0.000000 -0.000006 -0.000000 -3.901831 -0.000001 0.000004 -0.000001 
-11.792757 -89.185814 -95.206718 85.751427 -22.127547 -0.761246 0.000005 -12.731944 2.520525 13.212466 0.394570 -0.368433 0.000004 -8.486848 1.496461 0.281360 -0.007001 0.275269 0.000004 -8.584979 0.751097 -6.176488 2.935919 1.460190 0.000002 -8.617762 -0.000008 -3.588739 0.543602 1.301956 0.000002 -11.079991 -1.108017 6.328329 6.875816 -1.980518 -0.000002 -8.314036 -0.727377 3.414551 9.099391 -0.832306 0.000004 -8.218958 -1.449206 12.177086 0.736775 -1.966461 0.000000 -9.728081 0.000015 0.000004 0.000000 -0.000000 0.000003 -7.914284 -5.288106 -0.000007 21.297445 19.065940 -20.201811 0.000002 -0.000011 -40.937647 -28.207510 -95.591988 -29.446512 -0.000002 -0.000001 -129.058965 -72.297184 -130.425536 -23.111893 -0.000024 -0.000022 -1.764341 29.375831 3.593099 -3.824373 2.925482 -2.843750 0.000007 -0.000000 -0.000001 -10.198318 0.000012 0.065391 0.000001 -0.000001 0.000002 0.000001 -7.914265 -5.288105 -0.000004 -8.992613 -10.096435 20.201822 -0.000012 -0.000000 -10.400266 40.410370 91.269660 29.446440 -0.000006 0.000003 27.490144 12.646197 -6.499062 23.111895 -0.000020 -0.000012 0.578458 3.562587 -9.228824 3.824383 2.925497 -2.843752 0.000004 -0.000007 0.000006 10.198341 0.000009 0.065373 0.000000 0.000001 -0.000000 -10.695510 0.000002 -0.000010 -1.579172 5.618477 4.091367 0.000001 46.236351 -0.000007 5.955432 -0.000003 0.000000 0.000000 41.248138 -0.000008 0.864489 -2.191038 -4.941512 0.000000 3.207336 -0.000005 0.000000 -0.000002 -0.000000 -0.000004 -0.000006 -12.560959 8.570176 0.000002 0.000000 0.000007 -0.000000 -3.517777 -0.000001 0.000001 -0.000000 10.695512 0.000004 -0.000006 5.666855 -16.754070 2.002934 0.000006 46.236351 0.000011 7.375957 0.000001 0.000001 0.000007 41.248146 0.000009 -7.773872 -12.598584 -6.215078 0.000002 3.207329 -0.000000 -0.000000 -0.000006 0.000001 -0.000001 -0.000017 -12.560962 7.352518 0.000000 0.000001 0.000011 -0.000008 -3.901823 -0.000001 0.000004 0.000000 
-11.814810 -89.197220 -95.204567 85.799764 -22.180286 -0.731893 -0.000000 -12.731929 2.520510 13.261374 0.381549 -0.199210 0.000004 -8.486851 1.496444 0.278352 -0.032930 0.290465 0.000005 -8.584986 0.751078 -6.207533 2.687243 1.374538 -0.000003 -8.617807 -0.000003 -3.650100 0.341476 1.044899 0.000002 -11.079997 -1.107984 6.297045 7.395164 -1.771606 0.000000 -8.314032 -0.727399 3.398990 9.188637 -0.862106 -0.000000 -8.218970 -1.449227 12.169747 0.749188 -2.044438 0.000001 -9.728096 0.000011 0.000005 0.000000 -0.000000 -0.000002 -7.914288 -5.288078 -0.000011 21.651309 19.120664 -20.201838 0.000014 -0.000016 -39.951515 -29.175693 -95.069977 -29.446449 0.000002 -0.000005 -127.282228 -72.096950 -128.661694 -23.111868 -0.000021 0.000014 -2.255802 29.381343 4.590331 -3.824370 2.925503 -2.843751 0.000011 -0.000007 0.000001 -10.198328 0.000006 0.065386 0.000001 -0.000002 -0.000003 -0.000003 -7.914288 -5.288077 -0.000000 -8.564447 -9.821410 20.201826 0.000002 -0.000005 -10.481135 40.411029 91.377802 29.446470 -0.000005 -0.000002 27.483021 12.735432 -6.541811 23.111874 -0.000018 -0.000004 0.585334 3.569079 -9.320106 3.824420 2.925496 -2.843760 -0.000002 -0.000002 0.000003 10.198350 0.000008 0.065377 -0.000011 0.000004 0.000002 -10.695513 0.000008 -0.000010 -1.603046 5.582858 4.066168 -0.000001 46.236336 -0.000004 5.917810 -0.000004 0.000001 0.000001 41.248154 -0.000020 0.865248 -2.086805 -4.953443 0.000004 3.207336 0.000001 0.000000 0.000001 -0.000000 0.000005 0.000001 -12.560925 8.687743 0.000002 0.000000 0.000006 0.000008 -3.517778 -0.000000 0.000003 -0.000001 10.695513 0.000004 0.000020 5.614283 -16.706371 1.982749 0.000007 46.236343 -0.000001 7.336188 -0.000004 0.000002 0.000005 41.248138 -0.000033 -7.753247 -12.608342 -6.252394 0.000008 3.207344 0.000000 -0.000000 -0.000009 -0.000000 -0.000015 0.000007 -12.560961 7.402565 -0.000007 0.000002 0.000016 -0.000008 -3.901819 -0.000000 0.000002 -0.000000 
